<svg width="60" height="60" viewBox="0 0 60 60" fill="none" xmlns="http://www.w3.org/2000/svg">
<path d="M30 12.1875C23.5887 12.1875 18.3871 17.2266 18.3871 23.4375C18.3871 29.6484 23.5887 34.6875 30 34.6875C36.4113 34.6875 41.6129 29.6484 41.6129 23.4375C41.6129 17.2266 36.4113 12.1875 30 12.1875ZM30 29.0625C26.7944 29.0625 24.1935 26.543 24.1935 23.4375C24.1935 20.332 26.7944 17.8125 30 17.8125C33.2056 17.8125 35.8064 20.332 35.8064 23.4375C35.8064 26.543 33.2056 29.0625 30 29.0625ZM30 0.9375C13.4274 0.9375 0 13.9453 0 30C0 46.0547 13.4274 59.0625 30 59.0625C46.5726 59.0625 60 46.0547 60 30C60 13.9453 46.5726 0.9375 30 0.9375ZM30 53.4375C23.9879 53.4375 18.496 51.293 14.2621 47.7656C16.0645 45.0703 19.1492 43.2422 22.6815 43.1367C25.1976 43.8867 27.5927 44.2617 30 44.2617C32.4073 44.2617 34.8024 43.8984 37.3185 43.1367C40.8508 43.2539 43.9355 45.0703 45.7379 47.7656C41.504 51.293 36.0121 53.4375 30 53.4375ZM49.6814 43.582C46.7298 39.9023 42.1694 37.5 36.9677 37.5C35.7339 37.5 33.8226 38.625 30 38.625C26.1895 38.625 24.2661 37.5 23.0323 37.5C17.8427 37.5 13.2823 39.9023 10.3185 43.582C7.4879 39.75 5.80645 35.0625 5.80645 30C5.80645 17.0742 16.6573 6.5625 30 6.5625C43.3427 6.5625 54.1935 17.0742 54.1935 30C54.1935 35.0625 52.5121 39.75 49.6814 43.582Z" fill="black"/>
</svg>
