<svg width="40" height="40" viewBox="0 0 40 40" fill="none" xmlns="http://www.w3.org/2000/svg">
<path d="M25.651 21.95C25.8767 21.95 26.7231 22.3167 28.1901 23.05C29.6571 23.7834 30.434 24.225 30.5208 24.375C30.5556 24.4584 30.5729 24.5834 30.5729 24.75C30.5729 25.3 30.4253 25.9334 30.1302 26.65C29.8524 27.3 29.2361 27.8459 28.2812 28.2875C27.3264 28.7292 26.441 28.95 25.625 28.95C24.6354 28.95 22.9861 28.4334 20.6771 27.4C18.9757 26.65 17.5 25.6667 16.25 24.45C15 23.2334 13.7153 21.6917 12.3958 19.825C11.1458 18.0417 10.5295 16.425 10.5469 14.975V14.775C10.599 13.2584 11.2413 11.9417 12.474 10.825C12.8906 10.4584 13.342 10.275 13.8281 10.275C13.9323 10.275 14.0885 10.2875 14.2969 10.3125C14.5052 10.3375 14.6701 10.35 14.7917 10.35C15.1215 10.35 15.3516 10.4042 15.4818 10.5125C15.612 10.6209 15.7465 10.85 15.8854 11.2C16.0243 11.5334 16.3108 12.2667 16.7448 13.4C17.1788 14.5334 17.3958 15.1584 17.3958 15.275C17.3958 15.625 17.0964 16.1042 16.4974 16.7125C15.8984 17.3209 15.599 17.7084 15.599 17.875C15.599 17.9917 15.6424 18.1167 15.7292 18.25C16.3194 19.4667 17.2049 20.6084 18.3854 21.675C19.3576 22.5584 20.6684 23.4 22.3177 24.2C22.526 24.3167 22.717 24.375 22.8906 24.375C23.151 24.375 23.6198 23.9709 24.2969 23.1625C24.974 22.3542 25.4253 21.95 25.651 21.95ZM20.3646 35.2C22.5694 35.2 24.6832 34.7834 26.7057 33.95C28.7283 33.1167 30.4687 32 31.9271 30.6C33.3854 29.2 34.5486 27.5292 35.4167 25.5875C36.2847 23.6459 36.7187 21.6167 36.7187 19.5C36.7187 17.3834 36.2847 15.3542 35.4167 13.4125C34.5486 11.4709 33.3854 9.80002 31.9271 8.40002C30.4687 7.00002 28.7283 5.88336 26.7057 5.05002C24.6832 4.21669 22.5694 3.80002 20.3646 3.80002C18.1597 3.80002 16.046 4.21669 14.0234 5.05002C12.0009 5.88336 10.2604 7.00002 8.80208 8.40002C7.34375 9.80002 6.18056 11.4709 5.3125 13.4125C4.44444 15.3542 4.01042 17.3834 4.01042 19.5C4.01042 22.8834 5.05208 25.95 7.13542 28.7L5.07812 34.525L11.3802 32.6C14.1233 34.3334 17.1181 35.2 20.3646 35.2ZM20.3646 0.650024C23.0208 0.650024 25.5599 1.15002 27.9818 2.15002C30.4036 3.15002 32.4913 4.49169 34.2448 6.17502C35.9983 7.85836 37.3958 9.86252 38.4375 12.1875C39.4792 14.5125 40 16.95 40 19.5C40 22.05 39.4792 24.4875 38.4375 26.8125C37.3958 29.1375 35.9983 31.1417 34.2448 32.825C32.4913 34.5084 30.4036 35.85 27.9818 36.85C25.5599 37.85 23.0208 38.35 20.3646 38.35C16.9792 38.35 13.8108 37.5667 10.8594 36L0 39.35L3.54167 29.225C1.66667 26.2584 0.729167 23.0167 0.729167 19.5C0.729167 16.95 1.25 14.5125 2.29167 12.1875C3.33333 9.86252 4.7309 7.85836 6.48437 6.17502C8.23785 4.49169 10.3255 3.15002 12.7474 2.15002C15.1693 1.15002 17.7083 0.650024 20.3646 0.650024Z" fill="#FDF9F9"/>
</svg>
