<svg width="41" height="46" viewBox="0 0 41 46" fill="none" xmlns="http://www.w3.org/2000/svg">
<g clip-path="url(#clip0)">
<path d="M20.134 12.6681C14.4199 12.6681 9.81096 17.277 9.81096 22.9911C9.81096 28.7052 14.4199 33.3142 20.134 33.3142C25.8481 33.3142 30.457 28.7052 30.457 22.9911C30.457 17.277 25.8481 12.6681 20.134 12.6681ZM20.134 29.7024C16.4414 29.7024 13.4227 26.6927 13.4227 22.9911C13.4227 19.2895 16.4324 16.2798 20.134 16.2798C23.8356 16.2798 26.8453 19.2895 26.8453 22.9911C26.8453 26.6927 23.8266 29.7024 20.134 29.7024ZM33.2871 12.2458C33.2871 13.5845 32.209 14.6536 30.8793 14.6536C29.5406 14.6536 28.4715 13.5755 28.4715 12.2458C28.4715 10.9161 29.5496 9.83799 30.8793 9.83799C32.209 9.83799 33.2871 10.9161 33.2871 12.2458ZM40.1242 14.6896C39.9715 11.4642 39.2348 8.60713 36.8719 6.25322C34.518 3.89932 31.6609 3.1626 28.4356 3.00088C25.1113 2.81221 15.1477 2.81221 11.8235 3.00088C8.60705 3.15361 5.75002 3.89033 3.38713 6.24424C1.02424 8.59814 0.296509 11.4552 0.13479 14.6806C-0.0538818 18.0048 -0.0538818 27.9685 0.13479 31.2927C0.287524 34.5181 1.02424 37.3751 3.38713 39.729C5.75002 42.0829 8.59807 42.8196 11.8235 42.9813C15.1477 43.17 25.1113 43.17 28.4356 42.9813C31.6609 42.8286 34.518 42.0919 36.8719 39.729C39.2258 37.3751 39.9625 34.5181 40.1242 31.2927C40.3129 27.9685 40.3129 18.0138 40.1242 14.6896ZM35.8297 34.8595C35.1289 36.6204 33.7723 37.977 32.0024 38.6868C29.352 39.738 23.0629 39.4954 20.134 39.4954C17.2051 39.4954 10.907 39.729 8.26564 38.6868C6.50471 37.986 5.14807 36.6294 4.4383 34.8595C3.38713 32.2091 3.62971 25.92 3.62971 22.9911C3.62971 20.0622 3.39612 13.7642 4.4383 11.1228C5.13908 9.36182 6.49572 8.00518 8.26564 7.29541C10.916 6.24424 17.2051 6.48682 20.134 6.48682C23.0629 6.48682 29.3609 6.25322 32.0024 7.29541C33.7633 7.99619 35.1199 9.35283 35.8297 11.1228C36.8809 13.7731 36.6383 20.0622 36.6383 22.9911C36.6383 25.92 36.8809 32.2181 35.8297 34.8595Z" fill="white"/>
</g>
<defs>
<clipPath id="clip0">
<rect width="40.25" height="46" fill="white"/>
</clipPath>
</defs>
</svg>
