<svg width="60" height="60" viewBox="0 0 60 60" fill="none" xmlns="http://www.w3.org/2000/svg">
<path d="M50.9933 44.8326C50.5022 41.3728 49.5257 38.4989 48.0636 36.2109C46.6016 33.923 44.5424 32.6004 41.8862 32.2433C40.3906 33.8951 38.6105 35.1842 36.5458 36.1105C34.481 37.0368 32.2991 37.5 30 37.5C27.7009 37.5 25.519 37.0368 23.4542 36.1105C21.3895 35.1842 19.6094 33.8951 18.1138 32.2433C15.4576 32.6004 13.3984 33.923 11.9364 36.2109C10.4743 38.4989 9.49777 41.3728 9.0067 44.8326C11.3728 48.1808 14.3973 50.8315 18.0804 52.7846C21.7634 54.7377 25.7366 55.7143 30 55.7143C34.2634 55.7143 38.2366 54.7377 41.9196 52.7846C45.6027 50.8315 48.6272 48.1808 50.9933 44.8326ZM42.8571 21.4286C42.8571 17.8795 41.6016 14.8493 39.0904 12.3382C36.5792 9.82701 33.5491 8.57143 30 8.57143C26.4509 8.57143 23.4208 9.82701 20.9096 12.3382C18.3984 14.8493 17.1429 17.8795 17.1429 21.4286C17.1429 24.9777 18.3984 28.0078 20.9096 30.519C23.4208 33.0301 26.4509 34.2857 30 34.2857C33.5491 34.2857 36.5792 33.0301 39.0904 30.519C41.6016 28.0078 42.8571 24.9777 42.8571 21.4286ZM60 30C60 34.0625 59.2076 37.9408 57.6228 41.635C56.0379 45.3292 53.9118 48.5212 51.2444 51.2109C48.577 53.9007 45.3906 56.0379 41.6853 57.6228C37.9799 59.2076 34.0848 60 30 60C25.9375 60 22.0536 59.2076 18.3482 57.6228C14.6429 56.0379 11.4509 53.9062 8.77232 51.2277C6.09375 48.5491 3.96205 45.3571 2.37723 41.6518C0.792411 37.9464 0 34.0625 0 30C0 25.9375 0.792411 22.0536 2.37723 18.3482C3.96205 14.6429 6.09375 11.4509 8.77232 8.77232C11.4509 6.09375 14.6429 3.96205 18.3482 2.37723C22.0536 0.792411 25.9375 0 30 0C34.0625 0 37.9464 0.792411 41.6518 2.37723C45.3571 3.96205 48.5491 6.09375 51.2277 8.77232C53.9062 11.4509 56.0379 14.6429 57.6228 18.3482C59.2076 22.0536 60 25.9375 60 30Z" fill="black"/>
</svg>
