<svg width="46" height="46" viewBox="0 0 46 46" fill="none" xmlns="http://www.w3.org/2000/svg">
<path d="M41.2715 13.6307C41.3007 14.0393 41.3007 14.448 41.3007 14.8566C41.3007 27.3197 31.8148 41.6802 14.4772 41.6802C9.13576 41.6802 4.17387 40.1332 0 37.448C0.75891 37.5355 1.48853 37.5647 2.27664 37.5647C6.68393 37.5647 10.7411 36.0762 13.9809 33.5368C9.83627 33.4492 6.36291 30.7348 5.1662 26.9987C5.75 27.0862 6.33371 27.1446 6.94672 27.1446C7.79314 27.1446 8.63964 27.0278 9.42766 26.8236C5.10789 25.9479 1.86794 22.1535 1.86794 17.5711V17.4544C3.12297 18.1549 4.58248 18.5927 6.12932 18.651C3.58998 16.9581 1.92634 14.0685 1.92634 10.7994C1.92634 9.04821 2.39326 7.44288 3.21057 6.04186C7.85145 11.7627 14.8274 15.4986 22.6496 15.9073C22.5037 15.2068 22.4161 14.4772 22.4161 13.7475C22.4161 8.552 26.6192 4.31982 31.8438 4.31982C34.5582 4.31982 37.01 5.45814 38.7321 7.29698C40.8627 6.88837 42.9059 6.10026 44.7156 5.02034C44.015 7.20947 42.5265 9.0483 40.5709 10.2157C42.4682 10.0115 44.307 9.48602 45.9998 8.7564C44.7158 10.6243 43.1104 12.288 41.2715 13.6307Z" fill="white"/>
</svg>
