<svg width="30" height="30" viewBox="0 0 30 30" fill="none" xmlns="http://www.w3.org/2000/svg">
<g clip-path="url(#clip0)">
<path d="M14.9802 13.1249C10.6037 13.1249 4.39856 20.3179 4.39856 24.8583C4.39856 26.9032 5.87614 28.1249 8.35236 28.1249C11.0441 28.1249 12.8215 26.6554 14.9802 26.6554C17.1578 26.6554 18.9401 28.1249 21.6081 28.1249C24.0844 28.1249 25.5619 26.9032 25.5619 24.8583C25.5619 20.3179 19.3568 13.1249 14.9802 13.1249ZM6.86321 12.3861C6.29004 10.3558 4.52422 9.04094 2.91933 9.44875C1.31444 9.85656 0.478378 11.8329 1.05155 13.8632C1.62473 15.8935 3.39055 17.2083 4.99543 16.8005C6.60032 16.3927 7.43639 14.4163 6.86321 12.3861ZM11.5324 11.1685C13.2376 10.6915 14.0907 8.24231 13.4382 5.69817C12.7856 3.15403 10.8743 1.47883 9.16914 1.95578C7.46394 2.43274 6.6108 4.88196 7.26333 7.4261C7.91587 9.97024 9.82774 11.646 11.5324 11.1685ZM27.0406 9.44934C25.4357 9.04153 23.6705 10.3564 23.0967 12.3866C22.5236 14.4169 23.3596 16.3933 24.9645 16.8011C26.5694 17.2089 28.3347 15.8941 28.9084 13.8638C29.4816 11.8335 28.6455 9.85715 27.0406 9.44934ZM18.4281 11.1685C20.1333 11.6454 22.0446 9.97024 22.6972 7.4261C23.3497 4.88196 22.4965 2.43332 20.7914 1.95578C19.0862 1.47825 17.1748 3.15403 16.5223 5.69817C15.8698 8.24231 16.7229 10.6915 18.4281 11.1685Z" fill="#2E2E2E"/>
</g>
<defs>
<clipPath id="clip0">
<rect width="28.2178" height="30" fill="white" transform="translate(0.871338)"/>
</clipPath>
</defs>
</svg>
